<?xml version="1.0" encoding="UTF-8"?>
<svg version="1.1" xmlns="http://www.w3.org/2000/svg" width="200" height="200">
<path d="M0 0 C1.89903076 0.01135986 1.89903076 0.01135986 3.83642578 0.02294922 C13.6569168 0.19510626 22.39799865 1.29531883 31.6875 4.4375 C32.32252441 4.64648926 32.95754883 4.85547852 33.61181641 5.07080078 C47.99264067 9.9054521 59.83907924 17.87306931 70.6875 28.4375 C71.74904297 29.42363281 71.74904297 29.42363281 72.83203125 30.4296875 C89.775439 46.56318092 100.08647328 70.82441314 101.0234375 94.12890625 C101.49603577 124.91790434 91.91717136 150.37127333 70.5 173 C52.00588016 190.92604107 26.56155792 200.89334847 0.9375 200.75 C-0.11163574 200.74508545 -1.16077148 200.7401709 -2.24169922 200.73510742 C-25.97841157 200.37889233 -48.81437232 191.50720909 -66.3125 175.4375 C-66.7981543 174.99954102 -67.28380859 174.56158203 -67.78417969 174.11035156 C-79.98922807 163.00273848 -88.80471818 150.06194931 -94.3125 134.4375 C-94.55371582 133.78458984 -94.79493164 133.13167969 -95.04345703 132.45898438 C-103.6266664 108.52318787 -101.48442324 80.99285748 -91.08276367 58.03833008 C-79.39971728 33.47358309 -59.69724188 15.78546019 -34.6875 5.5625 C-23.23506089 1.55184889 -12.11057766 -0.10253546 0 0 Z " fill="#092454" transform="translate(99.3125,-0.4375)"/>
<path d="M0 0 C4.95 0.99 4.95 0.99 10 2 C9.53856207 8.64470619 8.60822848 13.87633314 6 20 C8.97 20.33 11.94 20.66 15 21 C15.04898438 20.34773438 15.09796875 19.69546875 15.1484375 19.0234375 C15.57242229 14.06720147 16.15665573 9.66980549 18 5 C25.42857143 6 25.42857143 6 29 7 C28.31195504 13.19240462 26.71951285 19.01955594 25 25 C26.0828125 25.16435547 26.0828125 25.16435547 27.1875 25.33203125 C34.57357685 27.0862245 40.74922186 31.82951561 45 38 C46.66881717 43.0064515 47.09634876 48.32964015 45.05859375 53.29296875 C42.65492905 57.30912325 40.00264271 60.47201513 36 63 C35.01 63 34.02 63 33 63 C33 63.66 33 64.32 33 65 C33.59296875 65.10957031 34.1859375 65.21914062 34.796875 65.33203125 C38.07685906 66.3264945 39.65557152 67.95240524 41.78515625 70.5859375 C44.77877794 76.5346777 44.01632825 83.75804152 42.07421875 89.953125 C39.26578705 96.06397963 35.88690969 99.88996331 29.94921875 103.11328125 C25.57668756 104.42793632 21.35079809 104.24904723 16.8125 104.1875 C15.89791016 104.18685547 14.98332031 104.18621094 14.04101562 104.18554688 C7.28129675 104.14064837 7.28129675 104.14064837 5 103 C4.896875 104.134375 4.79375 105.26875 4.6875 106.4375 C4.10525314 111.22391171 2.62753418 115.47120924 1 120 C-2.3 119.34 -5.6 118.68 -9 118 C-9.42765417 111.58518742 -7.85743168 106.11404596 -6 100 C-8.64 99.67 -11.28 99.34 -14 99 C-14.12375 100.155 -14.2475 101.31 -14.375 102.5 C-14.90278885 106.78350375 -15.88398037 110.83352672 -17 115 C-18.45880109 114.85892253 -19.91703551 114.71197585 -21.375 114.5625 C-22.59316406 114.44068359 -22.59316406 114.44068359 -23.8359375 114.31640625 C-26 114 -26 114 -28 113 C-27.48914188 106.56318772 -26.27057103 101.04057576 -24 95 C-25.2375 94.896875 -26.475 94.79375 -27.75 94.6875 C-33.64362532 94.04831894 -39.28618214 92.53722003 -45 91 C-44.54554036 89.58208592 -44.08625056 88.16571954 -43.625 86.75 C-43.24214844 85.56664063 -43.24214844 85.56664063 -42.8515625 84.359375 C-42 82 -42 82 -40 78 C-36.37 78.33 -32.74 78.66 -29 79 C-27.24978064 74.00790846 -25.90665056 68.96451702 -24.6171875 63.83984375 C-24.28849167 62.53860313 -24.28849167 62.53860313 -23.95315552 61.21107483 C-23.49304857 59.38509664 -23.03424049 57.55879072 -22.57666016 55.73217773 C-21.87604517 52.94166288 -21.16667345 50.15346524 -20.45703125 47.36523438 C-20.00987607 45.58607328 -19.56324362 43.80678071 -19.1171875 42.02734375 C-18.90472382 41.19702133 -18.69226013 40.36669891 -18.47335815 39.51121521 C-17.00946918 33.82667434 -17.00946918 33.82667434 -17 28 C-19.3129482 25.6870518 -20.47904875 25.50419025 -23.625 24.875 C-24.44226563 24.70742188 -25.25953125 24.53984375 -26.1015625 24.3671875 C-26.72804688 24.24601562 -27.35453125 24.12484375 -28 24 C-27.85831863 22.56208484 -27.71148957 21.1246763 -27.5625 19.6875 C-27.48128906 18.88699219 -27.40007812 18.08648437 -27.31640625 17.26171875 C-27 15 -27 15 -26 12 C-20.87475334 12.63315791 -16.03469229 13.68160656 -11.0625 15.0625 C-10.37865234 15.24876953 -9.69480469 15.43503906 -8.99023438 15.62695312 C-7.32579707 16.08089057 -5.66274688 16.53990916 -4 17 C-3.96261719 16.443125 -3.92523438 15.88625 -3.88671875 15.3125 C-3.40439364 9.71374576 -2.16758121 5.18334636 0 0 Z " fill="#F8F8F9" transform="translate(96,38)"/>
<path d="M0 0 C1.89903076 0.01135986 1.89903076 0.01135986 3.83642578 0.02294922 C13.6569168 0.19510626 22.39799865 1.29531883 31.6875 4.4375 C32.32252441 4.64648926 32.95754883 4.85547852 33.61181641 5.07080078 C47.99264067 9.9054521 59.83907924 17.87306931 70.6875 28.4375 C71.74904297 29.42363281 71.74904297 29.42363281 72.83203125 30.4296875 C89.775439 46.56318092 100.08647328 70.82441314 101.0234375 94.12890625 C101.49603577 124.91790434 91.91717136 150.37127333 70.5 173 C52.00588016 190.92604107 26.56155792 200.89334847 0.9375 200.75 C-0.11163574 200.74508545 -1.16077148 200.7401709 -2.24169922 200.73510742 C-25.97841157 200.37889233 -48.81437232 191.50720909 -66.3125 175.4375 C-66.7981543 174.99954102 -67.28380859 174.56158203 -67.78417969 174.11035156 C-79.98922807 163.00273848 -88.80471818 150.06194931 -94.3125 134.4375 C-94.55371582 133.78458984 -94.79493164 133.13167969 -95.04345703 132.45898438 C-103.6266664 108.52318787 -101.48442324 80.99285748 -91.08276367 58.03833008 C-79.39971728 33.47358309 -59.69724188 15.78546019 -34.6875 5.5625 C-23.23506089 1.55184889 -12.11057766 -0.10253546 0 0 Z M-64.3125 31.4375 C-64.94285156 31.98664062 -65.57320312 32.53578125 -66.22265625 33.1015625 C-83.22371773 48.82463986 -92.54151211 72.72649818 -93.5859375 95.42578125 C-94.23373842 119.4596452 -87.71893513 141.68844581 -72.3125 160.4375 C-71.71050781 161.20191406 -71.10851562 161.96632812 -70.48828125 162.75390625 C-55.57974893 180.72540747 -32.56641701 192.02075937 -9.48681641 194.26757812 C15.2427261 196.20018104 40.39204676 189.48872859 59.91796875 173.8359375 C69.38578176 165.63673131 76.51402989 157.24181149 82.6875 146.4375 C83.66396484 144.75140625 83.66396484 144.75140625 84.66015625 143.03125 C89.46950024 134.12732652 91.80375004 125.32212344 93.6875 115.4375 C93.88085938 114.46554688 94.07421875 113.49359375 94.2734375 112.4921875 C97.45389174 89.02883642 91.55079446 64.87597973 77.671875 45.64453125 C75.72848566 43.19304203 73.72701151 40.8092206 71.6875 38.4375 C71.19636719 37.81359375 70.70523438 37.1896875 70.19921875 36.546875 C57.26576648 20.3709516 33.9659964 9.13773756 13.6875 6.4375 C-15.86621204 4.29357162 -42.18952651 11.36640432 -64.3125 31.4375 Z " fill="#F7F8F9" transform="translate(99.3125,-0.4375)"/>
<path d="M0 0 C18.96164715 4.11909568 18.96164715 4.11909568 26 10.9375 C27.4212764 13.86888257 27.46005728 15.77959905 27 19 C24.77971923 22.48901264 22.83055871 24.49585391 19 26 C10.57848577 26.88951522 2.97474486 25.68488404 -5 23 C-4.72285156 21.75863281 -4.44570312 20.51726562 -4.16015625 19.23828125 C-3.79424248 17.59636049 -3.42835864 15.95443305 -3.0625 14.3125 C-2.88009766 13.49587891 -2.69769531 12.67925781 -2.50976562 11.83789062 C-1.63272372 7.89917517 -0.76659545 3.96208805 0 0 Z " fill="#0D2554" transform="translate(91,101)"/>
<path d="M0 0 C7.45304348 0.64809074 14.00251785 2.9429044 20.1875 7.1875 C22.47799161 10.74171112 22.45324045 12.81963036 21.68359375 16.90625 C21 19 21 19 19.1875 21.5625 C11.84348471 24.8745069 3.470692 23.29867446 -4 21 C-3.29843593 13.84404654 -1.69214979 6.98144819 0 0 Z " fill="#0E2453" transform="translate(99,70)"/>
<path d="M0 0 C-0.33 0.66 -0.66 1.32 -1 2 C-3.9140625 2.81640625 -3.9140625 2.81640625 -7.625 3.5625 C-8.83414063 3.81128906 -10.04328125 4.06007812 -11.2890625 4.31640625 C-17.63952735 5.48622872 -23.6837987 6.16152855 -30.125 6.125 C-30.81464844 6.12886719 -31.50429687 6.13273438 -32.21484375 6.13671875 C-35.93589698 6.12960393 -39.38273222 5.88672323 -43 5 C-43 4.34 -43 3.68 -43 3 C-42.20940186 2.98541748 -41.41880371 2.97083496 -40.60424805 2.95581055 C-36.96488119 2.88058297 -33.32635794 2.78417141 -29.6875 2.6875 C-28.44419922 2.66494141 -27.20089844 2.64238281 -25.91992188 2.61914062 C-18.98093401 2.41880239 -12.87586029 1.7576936 -6.28051758 -0.46557617 C-3.78156847 -1.05118795 -2.39916232 -0.82961688 0 0 Z " fill="#1B2554" transform="translate(130,188)"/>
<path d="M0 0 C0.33 0 0.66 0 1 0 C3.03214386 8.76966843 4.29854097 17.22810305 4.3125 26.25 C4.31765625 27.05928955 4.3228125 27.8685791 4.328125 28.70239258 C4.28078545 32.70723432 3.95060019 35.51910809 2 39 C1.66351188 34.77107814 1.33136068 30.54182647 1 26.3125 C0.90460938 25.11431641 0.80921875 23.91613281 0.7109375 22.68164062 C0.62070313 21.52470703 0.53046875 20.36777344 0.4375 19.17578125 C0.35371094 18.11270752 0.26992187 17.04963379 0.18359375 15.9543457 C0.06618256 14.06499348 0.00237922 12.17106526 0.0078125 10.27807617 C0.07801991 7.9238243 0.07801991 7.9238243 -0.5625 5.375 C-1 3 -1 3 0 0 Z " fill="#1E2A56" transform="translate(190,74)"/>
<path d="M0 0 C0.33 0 0.66 0 1 0 C0.67 4.29 0.34 8.58 0 13 C-2.97 12.67 -5.94 12.34 -9 12 C-8.34 9.69 -7.68 7.38 -7 5 C-6.67 5.99 -6.34 6.98 -6 8 C-5.34 8 -4.68 8 -4 8 C-3.896875 7.4225 -3.79375 6.845 -3.6875 6.25 C-2.897231 3.66366508 -1.75133174 2.04322037 0 0 Z " fill="#11214E" transform="translate(111,46)"/>
<path d="M0 0 C0.66 0 1.32 0 2 0 C0.64474464 4.21775732 -0.90200114 8.29421322 -2.625 12.375 C-3.07101563 13.43460938 -3.51703125 14.49421875 -3.9765625 15.5859375 C-4.31429688 16.38257812 -4.65203125 17.17921875 -5 18 C-6.2109375 16.453125 -6.2109375 16.453125 -7 14 C-5.99212459 11.39484836 -4.96372907 9.17152464 -3.625 6.75 C-3.11066406 5.77546875 -3.11066406 5.77546875 -2.5859375 4.78125 C-1.73816328 3.17989869 -0.87091321 1.58888556 0 0 Z " fill="#1F2A56" transform="translate(18,53)"/>
<path d="M0 0 C0.33 0 0.66 0 1 0 C3.07726572 7.33152608 2.94351599 13.46462229 2 21 C1.67 21 1.34 21 1 21 C0.93941406 20.11957031 0.87882813 19.23914063 0.81640625 18.33203125 C0.73261719 17.17058594 0.64882812 16.00914063 0.5625 14.8125 C0.48128906 13.66394531 0.40007812 12.51539062 0.31640625 11.33203125 C0.07479393 8.07997428 0.07479393 8.07997428 -0.59765625 5.26171875 C-1 3 -1 3 0 0 Z " fill="#24305B" transform="translate(190,74)"/>
<path d="M0 0 C2.37343313 2.11599726 2.95472391 2.64533727 3.375 5.9375 C2.96940652 9.24984673 2.23079726 10.58330297 0 13 C-0.99 12.67 -1.98 12.34 -3 12 C-2.34 11.34 -1.68 10.68 -1 10 C-0.53837573 7.56747339 -0.53837573 7.56747339 -0.375 4.875 C-0.30023438 3.96492188 -0.22546875 3.05484375 -0.1484375 2.1171875 C-0.09945312 1.41851562 -0.05046875 0.71984375 0 0 Z " fill="#202A53" transform="translate(115,111)"/>
<path d="M0 0 C2.97 0.33 5.94 0.66 9 1 C8.41196203 4.02419525 7.77321882 7.01758453 7 10 C6.34 10 5.68 10 5 10 C5.33 7.69 5.66 5.38 6 3 C5.01 3 4.02 3 3 3 C3 2.34 3 1.68 3 1 C2.01 0.67 1.02 0.34 0 0 Z " fill="#1C2552" transform="translate(63,132)"/>
<path d="M0 0 C0.33 0 0.66 0 1 0 C1.33 3.63 1.66 7.26 2 11 C1.34 11 0.68 11 0 11 C0 14.96 0 18.92 0 23 C-0.33 23 -0.66 23 -1 23 C-1.02714434 20.2915983 -1.04690846 17.58347279 -1.0625 14.875 C-1.07087891 14.11445312 -1.07925781 13.35390625 -1.08789062 12.5703125 C-1.10646509 8.2610356 -0.86117265 4.24483526 0 0 Z " fill="#050C41" transform="translate(7,84)"/>
<path d="M0 0 C0.66 0.33 1.32 0.66 2 1 C1.49202991 5.3177458 0.80317221 9.03302114 -1 13 C-1.66 13 -2.32 13 -3 13 C-2.01 8.71 -1.02 4.42 0 0 Z " fill="#141D4D" transform="translate(101,141)"/>
<path d="M0 0 C4.51478398 0.53115106 7.34666857 2.36620292 11 5 C10.34 5.66 9.68 6.32 9 7 C7.4972763 6.02501855 5.99788037 5.04490611 4.5 4.0625 C3.6646875 3.51722656 2.829375 2.97195312 1.96875 2.41015625 C1.3190625 1.94480469 0.669375 1.47945312 0 1 C0 0.67 0 0.34 0 0 Z " fill="#1E2853" transform="translate(148,21)"/>
<path d="M0 0 C-0.33 0.66 -0.66 1.32 -1 2 C-4.23097953 2.86159454 -6.22486274 3.30597523 -9.375 2.0625 C-9.91125 1.711875 -10.4475 1.36125 -11 1 C-3.57142857 -1.42857143 -3.57142857 -1.42857143 0 0 Z " fill="#222F5A" transform="translate(130,188)"/>
<path d="M0 0 C2.3773161 2.3773161 2.67028521 3.70285207 3 7 C2.34 7.66 1.68 8.32 1 9 C-1.09230769 4.56923077 -1.09230769 4.56923077 -0.625 1.6875 C-0.41875 1.130625 -0.2125 0.57375 0 0 Z " fill="#26315D" transform="translate(186,63)"/>
<path d="M0 0 C1.4606285 2.64738916 2 3.89448334 2 7 C-0.38564077 6.42415568 -2.66682784 5.77772405 -5 5 C-4.67 4.34 -4.34 3.68 -4 3 C-2.02 3.495 -2.02 3.495 0 4 C0 2.68 0 1.36 0 0 Z " fill="#27355C" transform="translate(109,52)"/>
<path d="M0 0 C1.60080151 4.00200378 0.29279692 7.04556236 -1 11 C-3 8 -3 8 -2.625 5.3125 C-2.41875 4.549375 -2.2125 3.78625 -2 3 C-1.34 3 -0.68 3 0 3 C0 2.01 0 1.02 0 0 Z " fill="#1C2A56" transform="translate(126,46)"/>
<path d="M0 0 C0.66 0.66 1.32 1.32 2 2 C1.96712417 4.72869407 1.43602229 7.2966618 1 10 C-1.56687367 6.1496895 -0.83288724 4.41430237 0 0 Z " fill="#2B365F" transform="translate(91,101)"/>
<path d="M0 0 C0.103125 0.61875 0.20625 1.2375 0.3125 1.875 C0.87525373 4.36526484 0.87525373 4.36526484 4 6 C2.02 6.33 0.04 6.66 -2 7 C-2.125 4.625 -2.125 4.625 -2 2 C-1.34 1.34 -0.68 0.68 0 0 Z " fill="#243258" transform="translate(97,84)"/>
<path d="M0 0 C1.31223496 3.93670488 0.24296256 6.12488144 -1 10 C-3 7 -3 7 -2.625 4.3125 C-2.41875 3.549375 -2.2125 2.78625 -2 2 C-1.34 2 -0.68 2 0 2 C0 1.34 0 0.68 0 0 Z " fill="#202B56" transform="translate(11,72)"/>
<path d="M0 0 C5.75 1.75 5.75 1.75 8 4 C5 5 5 5 2.3125 3.6875 C1.549375 3.130625 0.78625 2.57375 0 2 C0 1.34 0 0.68 0 0 Z " fill="#212A55" transform="translate(125,62)"/>
<path d="M0 0 C0.33 0.99 0.66 1.98 1 3 C-2.465 4.485 -2.465 4.485 -6 6 C-6 5.01 -6 4.02 -6 3 C-4.02 2.01 -2.04 1.02 0 0 Z " fill="#202855" transform="translate(60,14)"/>
<path d="M0 0 C1.45922693 0.11409593 2.91740598 0.24165544 4.375 0.375 C5.59316406 0.47941406 5.59316406 0.47941406 6.8359375 0.5859375 C9 1 9 1 11 3 C7.37 2.34 3.74 1.68 0 1 C0 0.67 0 0.34 0 0 Z " fill="#FFFFFF" transform="translate(120,0)"/>
<path d="M0 0 C0.33 0 0.66 0 1 0 C0.67 2.97 0.34 5.94 0 9 C-0.95904856 5.16380575 -0.91892116 3.67568464 0 0 Z " fill="#FFFFFF" transform="translate(199,118)"/>
<path d="M0 0 C5.75 0.75 5.75 0.75 8 3 C4.62537285 2.45276317 2.91765 1.9451 0 0 Z " fill="#FFFFFF" transform="translate(134,4)"/>
<path d="M0 0 C1.42944945 2.35438733 2.08661261 3.48032433 1.625 6.25 C1.41875 6.8275 1.2125 7.405 1 8 C0.67 5.36 0.34 2.72 0 0 Z " fill="#FFFFFF" transform="translate(0,120)"/>
<path d="M0 0 C-2.35438733 1.42944945 -3.48032433 2.08661261 -6.25 1.625 C-6.8275 1.41875 -7.405 1.2125 -8 1 C-5.07175348 0.02391783 -3.04386724 -0.08226668 0 0 Z " fill="#FFFFFF" transform="translate(79,0)"/>
<path d="M0 0 C1.98 0.66 3.96 1.32 6 2 C5.01 2.33 4.02 2.66 3 3 C2.01 2.01 1.02 1.02 0 0 Z " fill="#FFFFFF" transform="translate(55,191)"/>
<path d="M0 0 C2 3 2 3 1.625 5.1875 C1.315625 6.0846875 1.315625 6.0846875 1 7 C0.67 4.69 0.34 2.38 0 0 Z " fill="#FFFFFF" transform="translate(197,69)"/>
<path d="M0 0 C0.99 0.99 1.98 1.98 3 3 C2.67 3.99 2.34 4.98 2 6 C1.34 4.02 0.68 2.04 0 0 Z " fill="#FFFFFF" transform="translate(190,53)"/>
<path d="M0 0 C0.625 1.875 0.625 1.875 1 4 C0.34 4.66 -0.32 5.32 -1 6 C-0.67 4.02 -0.34 2.04 0 0 Z " fill="#FFFFFF" transform="translate(195,133)"/>
<path d="M0 0 C0.33 0.99 0.66 1.98 1 3 C0.34 3.99 -0.32 4.98 -1 6 C-0.67 4.02 -0.34 2.04 0 0 Z " fill="#FFFFFF" transform="translate(3,65)"/>
<path d="M0 0 C0.99 0.33 1.98 0.66 3 1 C1.35 1.33 -0.3 1.66 -2 2 C-1.34 1.34 -0.68 0.68 0 0 Z " fill="#FFFFFF" transform="translate(133,195)"/>
<path d="M0 0 C0.66 0.66 1.32 1.32 2 2 C1.67 2.99 1.34 3.98 1 5 C0.67 3.35 0.34 1.7 0 0 Z " fill="#FFFFFF" transform="translate(3,132)"/>
<path d="M0 0 C1.485 0.99 1.485 0.99 3 2 C2.67 2.66 2.34 3.32 2 4 C1.34 2.68 0.68 1.36 0 0 Z " fill="#FFFFFF" transform="translate(174,30)"/>
<path d="M0 0 C1.98 0.99 1.98 0.99 4 2 C2.68 1.67 1.36 1.34 0 1 C0 0.67 0 0.34 0 0 Z " fill="#FFFFFF" transform="translate(51,189)"/>
<path d="M0 0 C0.33 0 0.66 0 1 0 C1 1.65 1 3.3 1 5 C0.67 5 0.34 5 0 5 C0 3.35 0 1.7 0 0 Z " fill="#FFFFFF" transform="translate(199,76)"/>
<path d="M0 0 C0.33 0.66 0.66 1.32 1 2 C0.34 2.66 -0.32 3.32 -1 4 C-0.67 2.68 -0.34 1.36 0 0 Z " fill="#FFFFFF" transform="translate(7,56)"/>
<path d="M0 0 C0.99 0.33 1.98 0.66 3 1 C1.68 1.33 0.36 1.66 -1 2 C-0.67 1.34 -0.34 0.68 0 0 Z " fill="#FFFFFF" transform="translate(53,8)"/>
<path d="M0 0 C4 1 4 1 4 1 Z " fill="#FFFFFF" transform="translate(119,199)"/>
<path d="M0 0 C4 1 4 1 4 1 Z " fill="#FFFFFF" transform="translate(77,199)"/>
<path d="M0 0 C4 1 4 1 4 1 Z " fill="#FFFFFF" transform="translate(123,198)"/>
<path d="M0 0 C4 1 4 1 4 1 Z " fill="#FFFFFF" transform="translate(73,198)"/>
<path d="M0 0 C4 1 4 1 4 1 Z " fill="#FFFFFF" transform="translate(127,197)"/>
<path d="M0 0 C4 1 4 1 4 1 Z " fill="#FFFFFF" transform="translate(69,197)"/>
<path d="M0 0 C0.66 0.33 1.32 0.66 2 1 C1.01 1 0.02 1 -1 1 C-0.67 0.67 -0.34 0.34 0 0 Z " fill="#FFFFFF" transform="translate(150,187)"/>
<path d="M0 0 C0.66 0.33 1.32 0.66 2 1 C1.01 1 0.02 1 -1 1 C-0.67 0.67 -0.34 0.34 0 0 Z " fill="#FFFFFF" transform="translate(155,184)"/>
<path d="M0 0 C0.66 0.33 1.32 0.66 2 1 C1.01 1 0.02 1 -1 1 C-0.67 0.67 -0.34 0.34 0 0 Z " fill="#FFFFFF" transform="translate(159,181)"/>
<path d="M0 0 C0.66 0.33 1.32 0.66 2 1 C1.01 1 0.02 1 -1 1 C-0.67 0.67 -0.34 0.34 0 0 Z " fill="#FFFFFF" transform="translate(163,178)"/>
<path d="M0 0 C0.99 0.33 1.98 0.66 3 1 C2.01 1 1.02 1 0 1 C0 0.67 0 0.34 0 0 Z " fill="#FFFFFF" transform="translate(30,174)"/>
<path d="M0 0 C0.99 0.495 0.99 0.495 2 1 C1.67 1.66 1.34 2.32 1 3 C0.67 2.01 0.34 1.02 0 0 Z " fill="#FFFFFF" transform="translate(23,166)"/>
<path d="M0 0 C0 3 0 3 0 3 Z " fill="#FFFFFF" transform="translate(179,162)"/>
<path d="M0 0 C0.99 0.495 0.99 0.495 2 1 C1.67 1.66 1.34 2.32 1 3 C0.67 2.01 0.34 1.02 0 0 Z " fill="#FFFFFF" transform="translate(18,160)"/>
<path d="M0 0 C0 3 0 3 0 3 Z " fill="#FFFFFF" transform="translate(182,158)"/>
<path d="M0 0 C0.99 0.495 0.99 0.495 2 1 C1.67 1.66 1.34 2.32 1 3 C0.67 2.01 0.34 1.02 0 0 Z " fill="#FFFFFF" transform="translate(13,153)"/>
<path d="M0 0 C0.99 0.495 0.99 0.495 2 1 C1.67 1.66 1.34 2.32 1 3 C0.67 2.01 0.34 1.02 0 0 Z " fill="#FFFFFF" transform="translate(10,148)"/>
<path d="M0 0 C1 4 1 4 1 4 Z " fill="#FFFFFF" transform="translate(2,128)"/>
<path d="M0 0 C1 4 1 4 1 4 Z " fill="#FFFFFF" transform="translate(0,75)"/>
<path d="M0 0 C0 3 0 3 0 3 Z " fill="#FFFFFF" transform="translate(15,42)"/>
<path d="M0 0 C0 3 0 3 0 3 Z " fill="#FFFFFF" transform="translate(18,38)"/>
<path d="M0 0 C0 3 0 3 0 3 Z " fill="#FFFFFF" transform="translate(22,33)"/>
<path d="M0 0 C0.99 0.33 1.98 0.66 3 1 C2.01 1 1.02 1 0 1 C0 0.67 0 0.34 0 0 Z " fill="#FFFFFF" transform="translate(166,23)"/>
<path d="M0 0 C0.99 0.33 1.98 0.66 3 1 C2.01 1 1.02 1 0 1 C0 0.67 0 0.34 0 0 Z " fill="#FFFFFF" transform="translate(156,15)"/>
<path d="M0 0 C3 1 3 1 3 1 Z " fill="#FFFFFF" transform="translate(66,196)"/>
<path d="M0 0 C3 1 3 1 3 1 Z " fill="#FFFFFF" transform="translate(136,194)"/>
<path d="M0 0 C3 1 3 1 3 1 Z " fill="#FFFFFF" transform="translate(61,194)"/>
<path d="" fill="#FFFFFF" transform="translate(0,0)"/>
<path d="" fill="#FFFFFF" transform="translate(0,0)"/>
<path d="" fill="#FFFFFF" transform="translate(0,0)"/>
<path d="" fill="#FFFFFF" transform="translate(0,0)"/>
<path d="" fill="#FFFFFF" transform="translate(0,0)"/>
<path d="" fill="#FFFFFF" transform="translate(0,0)"/>
<path d="M0 0 C3 1 3 1 3 1 Z " fill="#FFFFFF" transform="translate(62,4)"/>
<path d="M0 0 C3 1 3 1 3 1 Z " fill="#FFFFFF" transform="translate(131,3)"/>
<path d="M0 0 C3 1 3 1 3 1 Z " fill="#FFFFFF" transform="translate(65,3)"/>
<path d="M0 0 C3 1 3 1 3 1 Z " fill="#FFFFFF" transform="translate(68,2)"/>
<path d="M0 0 C2 1 2 1 2 1 Z " fill="#FFFFFF" transform="translate(64,195)"/>
<path d="M0 0 C2 1 2 1 2 1 Z " fill="#FFFFFF" transform="translate(139,193)"/>
<path d="M0 0 C2 1 2 1 2 1 Z " fill="#FFFFFF" transform="translate(141,192)"/>
<path d="M0 0 C2 1 2 1 2 1 Z " fill="#FFFFFF" transform="translate(143,191)"/>
<path d="M0 0 C2 1 2 1 2 1 Z " fill="#FFFFFF" transform="translate(145,190)"/>
<path d="M0 0 C2 1 2 1 2 1 Z " fill="#FFFFFF" transform="translate(147,189)"/>
<path d="M0 0 C2 1 2 1 2 1 Z " fill="#FFFFFF" transform="translate(49,188)"/>
<path d="M0 0 C2 1 2 1 2 1 Z " fill="#FFFFFF" transform="translate(152,186)"/>
<path d="M0 0 C2 1 2 1 2 1 Z " fill="#FFFFFF" transform="translate(44,185)"/>
<path d="M0 0 C2 1 2 1 2 1 Z " fill="#FFFFFF" transform="translate(41,183)"/>
<path d="M0 0 C2 1 2 1 2 1 Z " fill="#FFFFFF" transform="translate(37,180)"/>
<path d="" fill="#FFFFFF" transform="translate(0,0)"/>
<path d="" fill="#FFFFFF" transform="translate(0,0)"/>
<path d="" fill="#FFFFFF" transform="translate(0,0)"/>
<path d="" fill="#FFFFFF" transform="translate(0,0)"/>
<path d="" fill="#FFFFFF" transform="translate(0,0)"/>
<path d="" fill="#FFFFFF" transform="translate(0,0)"/>
<path d="" fill="#FFFFFF" transform="translate(0,0)"/>
<path d="" fill="#FFFFFF" transform="translate(0,0)"/>
<path d="" fill="#FFFFFF" transform="translate(0,0)"/>
<path d="" fill="#FFFFFF" transform="translate(0,0)"/>
<path d="" fill="#FFFFFF" transform="translate(0,0)"/>
<path d="" fill="#FFFFFF" transform="translate(0,0)"/>
<path d="" fill="#FFFFFF" transform="translate(0,0)"/>
<path d="" fill="#FFFFFF" transform="translate(0,0)"/>
<path d="" fill="#FFFFFF" transform="translate(0,0)"/>
<path d="" fill="#FFFFFF" transform="translate(0,0)"/>
<path d="" fill="#FFFFFF" transform="translate(0,0)"/>
<path d="" fill="#FFFFFF" transform="translate(0,0)"/>
<path d="" fill="#FFFFFF" transform="translate(0,0)"/>
<path d="" fill="#FFFFFF" transform="translate(0,0)"/>
<path d="" fill="#FFFFFF" transform="translate(0,0)"/>
<path d="" fill="#FFFFFF" transform="translate(0,0)"/>
<path d="" fill="#FFFFFF" transform="translate(0,0)"/>
<path d="" fill="#FFFFFF" transform="translate(0,0)"/>
<path d="" fill="#FFFFFF" transform="translate(0,0)"/>
<path d="" fill="#FFFFFF" transform="translate(0,0)"/>
<path d="" fill="#FFFFFF" transform="translate(0,0)"/>
<path d="" fill="#FFFFFF" transform="translate(0,0)"/>
<path d="" fill="#FFFFFF" transform="translate(0,0)"/>
<path d="M0 0 C2 1 2 1 2 1 Z " fill="#FFFFFF" transform="translate(34,21)"/>
<path d="M0 0 C2 1 2 1 2 1 Z " fill="#FFFFFF" transform="translate(161,19)"/>
<path d="M0 0 C2 1 2 1 2 1 Z " fill="#FFFFFF" transform="translate(38,18)"/>
<path d="M0 0 C2 1 2 1 2 1 Z " fill="#FFFFFF" transform="translate(42,15)"/>
<path d="M0 0 C2 1 2 1 2 1 Z " fill="#FFFFFF" transform="translate(154,14)"/>
<path d="M0 0 C2 1 2 1 2 1 Z " fill="#FFFFFF" transform="translate(45,13)"/>
<path d="M0 0 C2 1 2 1 2 1 Z " fill="#FFFFFF" transform="translate(151,12)"/>
<path d="M0 0 C2 1 2 1 2 1 Z " fill="#FFFFFF" transform="translate(149,11)"/>
<path d="M0 0 C2 1 2 1 2 1 Z " fill="#FFFFFF" transform="translate(48,11)"/>
<path d="M0 0 C2 1 2 1 2 1 Z " fill="#FFFFFF" transform="translate(50,10)"/>
<path d="M0 0 C2 1 2 1 2 1 Z " fill="#FFFFFF" transform="translate(146,9)"/>
<path d="M0 0 C2 1 2 1 2 1 Z " fill="#FFFFFF" transform="translate(144,8)"/>
<path d="M0 0 C2 1 2 1 2 1 Z " fill="#FFFFFF" transform="translate(142,7)"/>
<path d="M0 0 C2 1 2 1 2 1 Z " fill="#FFFFFF" transform="translate(56,7)"/>
<path d="M0 0 C2 1 2 1 2 1 Z " fill="#FFFFFF" transform="translate(58,6)"/>
<path d="M0 0 C2 1 2 1 2 1 Z " fill="#FFFFFF" transform="translate(60,5)"/>
<path d="" fill="#FFFFFF" transform="translate(0,0)"/>
<path d="" fill="#FFFFFF" transform="translate(0,0)"/>
<path d="" fill="#FFFFFF" transform="translate(0,0)"/>
<path d="" fill="#FFFFFF" transform="translate(0,0)"/>
<path d="" fill="#FFFFFF" transform="translate(0,0)"/>
<path d="" fill="#FFFFFF" transform="translate(0,0)"/>
<path d="" fill="#FFFFFF" transform="translate(0,0)"/>
<path d="" fill="#FFFFFF" transform="translate(0,0)"/>
<path d="" fill="#FFFFFF" transform="translate(0,0)"/>
<path d="" fill="#FFFFFF" transform="translate(0,0)"/>
<path d="" fill="#FFFFFF" transform="translate(0,0)"/>
<path d="" fill="#FFFFFF" transform="translate(0,0)"/>
<path d="" fill="#FFFFFF" transform="translate(0,0)"/>
<path d="" fill="#FFFFFF" transform="translate(0,0)"/>
<path d="" fill="#FFFFFF" transform="translate(0,0)"/>
<path d="" fill="#FFFFFF" transform="translate(0,0)"/>
<path d="" fill="#FFFFFF" transform="translate(0,0)"/>
<path d="" fill="#FFFFFF" transform="translate(0,0)"/>
<path d="" fill="#FFFFFF" transform="translate(0,0)"/>
<path d="" fill="#FFFFFF" transform="translate(0,0)"/>
<path d="" fill="#FFFFFF" transform="translate(0,0)"/>
<path d="" fill="#FFFFFF" transform="translate(0,0)"/>
<path d="" fill="#FFFFFF" transform="translate(0,0)"/>
<path d="" fill="#FFFFFF" transform="translate(0,0)"/>
<path d="" fill="#FFFFFF" transform="translate(0,0)"/>
<path d="" fill="#FFFFFF" transform="translate(0,0)"/>
<path d="" fill="#FFFFFF" transform="translate(0,0)"/>
<path d="" fill="#FFFFFF" transform="translate(0,0)"/>
<path d="" fill="#FFFFFF" transform="translate(0,0)"/>
<path d="" fill="#FFFFFF" transform="translate(0,0)"/>
<path d="" fill="#FFFFFF" transform="translate(0,0)"/>
<path d="" fill="#FFFFFF" transform="translate(0,0)"/>
<path d="" fill="#FFFFFF" transform="translate(0,0)"/>
<path d="" fill="#FFFFFF" transform="translate(0,0)"/>
<path d="" fill="#FFFFFF" transform="translate(0,0)"/>
<path d="" fill="#FFFFFF" transform="translate(0,0)"/>
<path d="" fill="#FFFFFF" transform="translate(0,0)"/>
<path d="" fill="#FFFFFF" transform="translate(0,0)"/>
<path d="" fill="#FFFFFF" transform="translate(0,0)"/>
<path d="" fill="#FFFFFF" transform="translate(0,0)"/>
<path d="" fill="#FFFFFF" transform="translate(0,0)"/>
<path d="" fill="#FFFFFF" transform="translate(0,0)"/>
<path d="" fill="#FFFFFF" transform="translate(0,0)"/>
<path d="" fill="#FFFFFF" transform="translate(0,0)"/>
<path d="" fill="#FFFFFF" transform="translate(0,0)"/>
<path d="" fill="#FFFFFF" transform="translate(0,0)"/>
<path d="" fill="#FFFFFF" transform="translate(0,0)"/>
<path d="" fill="#FFFFFF" transform="translate(0,0)"/>
<path d="" fill="#FFFFFF" transform="translate(0,0)"/>
<path d="" fill="#FFFFFF" transform="translate(0,0)"/>
<path d="" fill="#FFFFFF" transform="translate(0,0)"/>
<path d="" fill="#FFFFFF" transform="translate(0,0)"/>
<path d="" fill="#FFFFFF" transform="translate(0,0)"/>
<path d="" fill="#FFFFFF" transform="translate(0,0)"/>
<path d="" fill="#FFFFFF" transform="translate(0,0)"/>
<path d="" fill="#FFFFFF" transform="translate(0,0)"/>
<path d="" fill="#FFFFFF" transform="translate(0,0)"/>
<path d="" fill="#FFFFFF" transform="translate(0,0)"/>
<path d="" fill="#FFFFFF" transform="translate(0,0)"/>
<path d="" fill="#FFFFFF" transform="translate(0,0)"/>
<path d="" fill="#FFFFFF" transform="translate(0,0)"/>
<path d="" fill="#FFFFFF" transform="translate(0,0)"/>
<path d="" fill="#FFFFFF" transform="translate(0,0)"/>
<path d="" fill="#FFFFFF" transform="translate(0,0)"/>
<path d="" fill="#FFFFFF" transform="translate(0,0)"/>
<path d="" fill="#FFFFFF" transform="translate(0,0)"/>
<path d="" fill="#FFFFFF" transform="translate(0,0)"/>
<path d="" fill="#FFFFFF" transform="translate(0,0)"/>
<path d="" fill="#FFFFFF" transform="translate(0,0)"/>
<path d="" fill="#FFFFFF" transform="translate(0,0)"/>
<path d="" fill="#FFFFFF" transform="translate(0,0)"/>
<path d="" fill="#FFFFFF" transform="translate(0,0)"/>
<path d="" fill="#FFFFFF" transform="translate(0,0)"/>
<path d="" fill="#FFFFFF" transform="translate(0,0)"/>
<path d="" fill="#FFFFFF" transform="translate(0,0)"/>
<path d="" fill="#FFFFFF" transform="translate(0,0)"/>
<path d="" fill="#FFFFFF" transform="translate(0,0)"/>
<path d="" fill="#FFFFFF" transform="translate(0,0)"/>
</svg>
